<svg width="20" height="18" viewBox="0 0 20 18" fill="none" xmlns="http://www.w3.org/2000/svg">
<path d="M6 2H14C14.2652 2 14.5196 1.89464 14.7071 1.70711C14.8946 1.51957 15 1.26522 15 1C15 0.734784 14.8946 0.48043 14.7071 0.292893C14.5196 0.105357 14.2652 0 14 0H6C5.73478 0 5.48043 0.105357 5.29289 0.292893C5.10536 0.48043 5 0.734784 5 1C5 1.26522 5.10536 1.51957 5.29289 1.70711C5.48043 1.89464 5.73478 2 6 2Z" fill="#820A31"/>
<path d="M18 3.5H2C1.46957 3.5 0.960859 3.71071 0.585786 4.08579C0.210714 4.46086 0 4.96957 0 5.5V16C0 16.5304 0.210714 17.0391 0.585786 17.4142C0.960859 17.7893 1.46957 18 2 18H18C18.5304 18 19.0391 17.7893 19.4142 17.4142C19.7893 17.0391 20 16.5304 20 16V5.5C20 4.96957 19.7893 4.46086 19.4142 4.08579C19.0391 3.71071 18.5304 3.5 18 3.5ZM13 11.75H11V13.75H9V11.75H7V9.75H9V7.75H11V9.75H13V11.75Z" fill="#820A31"/>
</svg>
