<svg width="20" height="20" viewBox="0 0 20 20" fill="none" xmlns="http://www.w3.org/2000/svg">
<path d="M10 0C8.02219 0 6.08879 0.58649 4.4443 1.6853C2.79981 2.78412 1.51809 4.3459 0.761209 6.17317C0.00433284 8.00043 -0.193701 10.0111 0.192152 11.9509C0.578004 13.8907 1.53041 15.6725 2.92894 17.0711C4.32746 18.4696 6.10929 19.422 8.0491 19.8079C9.98891 20.1937 11.9996 19.9957 13.8268 19.2388C15.6541 18.4819 17.2159 17.2002 18.3147 15.5557C19.4135 13.9112 20 11.9778 20 10C20 8.68678 19.7413 7.38642 19.2388 6.17317C18.7363 4.95991 17.9997 3.85752 17.0711 2.92893C16.1425 2.00035 15.0401 1.26375 13.8268 0.761205C12.6136 0.258658 11.3132 0 10 0ZM10 13C9.40666 13 8.82664 12.8241 8.33329 12.4944C7.83995 12.1648 7.45543 11.6962 7.22837 11.1481C7.0013 10.5999 6.94189 9.99667 7.05765 9.41473C7.1734 8.83279 7.45913 8.29824 7.87868 7.87868C8.29824 7.45912 8.83279 7.1734 9.41473 7.05764C9.99668 6.94189 10.5999 7.0013 11.1481 7.22836C11.6962 7.45542 12.1648 7.83994 12.4944 8.33329C12.8241 8.82664 13 9.40666 13 10C13 10.7956 12.6839 11.5587 12.1213 12.1213C11.5587 12.6839 10.7957 13 10 13Z" fill="#9A9A9A"/>
</svg>
