<svg width="40" height="36" viewBox="0 0 40 36" fill="none" xmlns="http://www.w3.org/2000/svg">
<path d="M38 12H35.07L27.67 0.890013C27.3756 0.448692 26.918 0.142394 26.3977 0.0384987C25.8775 -0.0653964 25.3373 0.0416224 24.896 0.336013C24.4547 0.630403 24.1484 1.08805 24.0445 1.60828C23.9406 2.1285 24.0476 2.66869 24.342 3.11001L30.264 12H9.736L15.664 3.11001C15.9584 2.66869 16.0654 2.1285 15.9615 1.60828C15.8576 1.08805 15.5513 0.630403 15.11 0.336013C14.6687 0.0416224 14.1285 -0.0653964 13.6083 0.0384987C13.088 0.142394 12.6304 0.448692 12.336 0.890013L4.93 12H2C1.46957 12 0.960859 12.2107 0.585786 12.5858C0.210714 12.9609 0 13.4696 0 14C0 14.5304 0.210714 15.0392 0.585786 15.4142C0.960859 15.7893 1.46957 16 2 16H4V32C4 33.0609 4.42143 34.0783 5.17157 34.8284C5.92172 35.5786 6.93913 36 8 36H32C33.0609 36 34.0783 35.5786 34.8284 34.8284C35.5786 34.0783 36 33.0609 36 32V16H38C38.5304 16 39.0391 15.7893 39.4142 15.4142C39.7893 15.0392 40 14.5304 40 14C40 13.4696 39.7893 12.9609 39.4142 12.5858C39.0391 12.2107 38.5304 12 38 12ZM14 29C14 29.5304 13.7893 30.0392 13.4142 30.4142C13.0391 30.7893 12.5304 31 12 31C11.4696 31 10.9609 30.7893 10.5858 30.4142C10.2107 30.0392 10 29.5304 10 29V21C10 20.4696 10.2107 19.9609 10.5858 19.5858C10.9609 19.2107 11.4696 19 12 19C12.5304 19 13.0391 19.2107 13.4142 19.5858C13.7893 19.9609 14 20.4696 14 21V29ZM22 29C22 29.5304 21.7893 30.0392 21.4142 30.4142C21.0391 30.7893 20.5304 31 20 31C19.4696 31 18.9609 30.7893 18.5858 30.4142C18.2107 30.0392 18 29.5304 18 29V21C18 20.4696 18.2107 19.9609 18.5858 19.5858C18.9609 19.2107 19.4696 19 20 19C20.5304 19 21.0391 19.2107 21.4142 19.5858C21.7893 19.9609 22 20.4696 22 21V29ZM30 29C30 29.5304 29.7893 30.0392 29.4142 30.4142C29.0391 30.7893 28.5304 31 28 31C27.4696 31 26.9609 30.7893 26.5858 30.4142C26.2107 30.0392 26 29.5304 26 29V21C26 20.4696 26.2107 19.9609 26.5858 19.5858C26.9609 19.2107 27.4696 19 28 19C28.5304 19 29.0391 19.2107 29.4142 19.5858C29.7893 19.9609 30 20.4696 30 21V29Z" fill="#3E6E85"/>
</svg>
