<svg width="36" height="36" viewBox="0 0 36 36" fill="none" xmlns="http://www.w3.org/2000/svg">
<path d="M12 20C12 17.7947 13.7947 16 16 16H21.3333V5.33331C21.3333 4.59731 20.7373 4 20 4H1.33331C0.596 4 0 4.59731 0 5.33331V34.6666C0 35.4026 0.596 36 1.33331 36H20C20.7373 36 21.3333 35.4026 21.3333 34.6666V25.3333V24H16C13.7947 24 12 22.2053 12 20Z" fill="#3E6E85"/>
<path d="M31.6999 20.8422C31.704 20.8372 31.7073 20.8319 31.7113 20.8269C31.7341 20.798 31.7563 20.7686 31.7768 20.7378C31.7864 20.7235 31.7945 20.7085 31.8035 20.6938C31.817 20.6717 31.8308 20.6498 31.843 20.627C31.8531 20.6082 31.8615 20.5888 31.8706 20.5697C31.88 20.5499 31.8899 20.5304 31.8983 20.5101C31.9074 20.4882 31.9148 20.4659 31.9226 20.4437C31.9291 20.4253 31.9363 20.4072 31.9419 20.3883C31.9499 20.3622 31.956 20.3358 31.9623 20.3093C31.966 20.2938 31.9705 20.2787 31.9736 20.263C31.981 20.2267 31.9861 20.1901 31.9903 20.1534C31.9911 20.1471 31.9924 20.141 31.993 20.1346C32.0021 20.045 32.0021 19.9546 31.993 19.865C31.9924 19.8586 31.991 19.8525 31.9903 19.8462C31.9861 19.8095 31.9809 19.7729 31.9736 19.7366C31.9705 19.7209 31.966 19.7057 31.9623 19.6902C31.956 19.6638 31.9499 19.6373 31.9419 19.6112C31.9363 19.5924 31.9291 19.5743 31.9226 19.5558C31.9147 19.5337 31.9074 19.5113 31.8983 19.4895C31.8899 19.4692 31.88 19.4497 31.8706 19.4298C31.8615 19.4107 31.8531 19.3914 31.843 19.3726C31.8308 19.3497 31.817 19.3278 31.8035 19.3058C31.7945 19.2911 31.7864 19.2761 31.7768 19.2617C31.7563 19.231 31.7341 19.2015 31.7113 19.1727C31.7073 19.1677 31.704 19.1624 31.6999 19.1574C31.6699 19.1206 31.638 19.0855 31.6042 19.0521L26.2758 13.7237C25.7545 13.2024 24.9118 13.2024 24.3905 13.7237C23.8692 14.245 23.8692 15.0877 24.3905 15.609L27.4478 18.6663H15.9998C15.2625 18.6663 14.6665 19.2637 14.6665 19.9997C14.6665 20.7357 15.2625 21.333 15.9998 21.333H27.4478L24.3905 24.3903C23.8692 24.9116 23.8692 25.7543 24.3905 26.2756C24.6505 26.5356 24.9918 26.6663 25.3332 26.6663C25.6745 26.6663 26.0159 26.5356 26.2759 26.2756L31.6043 20.9472C31.6379 20.9141 31.6698 20.879 31.6999 20.8422Z" fill="#3E6E85"/>
</svg>
