<svg width="24" height="24" viewBox="0 0 24 24" fill="none" xmlns="http://www.w3.org/2000/svg">
<path d="M12 0C9.62663 0 7.30655 0.703788 5.33316 2.02236C3.35977 3.34094 1.8217 5.21508 0.913451 7.4078C0.00519937 9.60051 -0.232441 12.0133 0.230582 14.3411C0.693605 16.6688 1.83649 18.807 3.51472 20.4853C5.19295 22.1635 7.33115 23.3064 9.65892 23.7694C11.9867 24.2324 14.3995 23.9948 16.5922 23.0865C18.7849 22.1783 20.6591 20.6402 21.9776 18.6668C23.2962 16.6934 24 14.3734 24 12C24 10.4241 23.6896 8.8637 23.0866 7.4078C22.4835 5.95189 21.5996 4.62902 20.4853 3.51472C19.371 2.40041 18.0481 1.5165 16.5922 0.913445C15.1363 0.310389 13.5759 0 12 0ZM12 6C12.712 6 13.408 6.21113 14.0001 6.60671C14.5921 7.00228 15.0535 7.56452 15.326 8.22234C15.5984 8.88015 15.6697 9.60399 15.5308 10.3023C15.3919 11.0007 15.0491 11.6421 14.5456 12.1456C14.0421 12.649 13.4007 12.9919 12.7023 13.1308C12.004 13.2697 11.2802 13.1984 10.6223 12.926C9.96453 12.6535 9.40229 12.1921 9.00671 11.6C8.61114 11.008 8.4 10.312 8.4 9.6C8.4 8.64522 8.77929 7.72954 9.45442 7.05441C10.1295 6.37928 11.0452 6 12 6ZM12 21.6C9.66658 21.6001 7.41376 20.7465 5.6664 19.2C7.41485 17.6557 9.66724 16.8035 12 16.8035C14.3328 16.8035 16.5852 17.6557 18.3336 19.2C16.5862 20.7465 14.3334 21.6001 12 21.6Z" fill="#9A9A9A"/>
</svg>
