<svg width="28" height="28" viewBox="0 0 32 35" fill="none" xmlns="http://www.w3.org/2000/svg">
<path d="M3.35407e-06 11.5325V33.0556C3.35407e-06 33.5713 0.210717 34.0658 0.58579 34.4305C0.960863 34.7951 1.46957 35 2 35H30C30.5304 35 31.0391 34.7951 31.4142 34.4305C31.7893 34.0658 32 33.5713 32 33.0556V11.5325C31.9996 11.2145 31.919 10.9014 31.7652 10.6207C31.6115 10.34 31.3892 10.1003 31.118 9.9225L16 0L0.882003 9.91667C0.609933 10.095 0.38717 10.3357 0.233356 10.6174C0.0795422 10.8992 -0.000597512 11.2135 3.35407e-06 11.5325ZM12 21.3889C12 20.8732 12.2107 20.3786 12.5858 20.014C12.9609 19.6493 13.4696 19.4444 14 19.4444H18C18.5304 19.4444 19.0391 19.6493 19.4142 20.014C19.7893 20.3786 20 20.8732 20 21.3889V31.1111H12V21.3889Z" fill="#3E6E85"/>
</svg>
