<svg width="22" height="24" viewBox="0 0 22 24" fill="none" xmlns="http://www.w3.org/2000/svg">
<path d="M21.5 10.5018C21.5 9.88293 21.2542 9.28944 20.8166 8.85185C20.379 8.41427 19.7855 8.16843 19.1667 8.16843H16.8333V5.8351C16.8337 4.55066 16.4102 3.302 15.6284 2.28287C14.8466 1.26375 13.7503 0.531142 12.5096 0.198733C11.269 -0.133676 9.95325 -0.0473014 8.76667 0.444454C7.5801 0.93621 6.589 1.80585 5.94717 2.91843C5.80343 3.18554 5.76936 3.49813 5.8522 3.78992C5.93504 4.08172 6.12827 4.32977 6.39092 4.48151C6.65357 4.63324 6.96498 4.67671 7.25915 4.60271C7.55331 4.52871 7.80708 4.34305 7.96667 4.0851C8.3514 3.41674 8.94611 2.89415 9.65839 2.59854C10.3707 2.30293 11.1607 2.25085 11.9056 2.45039C12.6505 2.64992 13.3087 3.0899 13.7778 3.70197C14.247 4.31403 14.5009 5.06391 14.5 5.8351V8.16843H2.83333C2.21449 8.16843 1.621 8.41427 1.18342 8.85185C0.745833 9.28944 0.5 9.88293 0.5 10.5018V21.0018C0.5 21.6206 0.745833 22.2141 1.18342 22.6517C1.621 23.0893 2.21449 23.3351 2.83333 23.3351H19.1667C19.7855 23.3351 20.379 23.0893 20.8166 22.6517C21.2542 22.2141 21.5 21.6206 21.5 21.0018V10.5018ZM11 18.0851C10.5385 18.0851 10.0874 17.9483 9.70367 17.6919C9.31995 17.4355 9.02089 17.0711 8.84428 16.6447C8.66768 16.2183 8.62147 15.7492 8.7115 15.2966C8.80153 14.8439 9.02376 14.4282 9.35008 14.1019C9.67641 13.7755 10.0922 13.5533 10.5448 13.4633C10.9974 13.3732 11.4666 13.4194 11.8929 13.596C12.3193 13.7727 12.6837 14.0717 12.9401 14.4554C13.1965 14.8392 13.3333 15.2903 13.3333 15.7518C13.3333 16.3706 13.0875 16.9641 12.6499 17.4017C12.2123 17.8393 11.6188 18.0851 11 18.0851Z" fill="#9A9A9A"/>
</svg>
