<svg width="24" height="19" viewBox="0 0 24 19" fill="none" xmlns="http://www.w3.org/2000/svg">
<path d="M22.5 0H1.49998C1.19056 0 0.893814 0.122917 0.675022 0.341709C0.456229 0.560501 0.333313 0.857247 0.333313 1.16667V17.5C0.333313 17.8094 0.456229 18.1062 0.675022 18.325C0.893814 18.5438 1.19056 18.6667 1.49998 18.6667H22.5C22.8094 18.6667 23.1061 18.5438 23.3249 18.325C23.5437 18.1062 23.6666 17.8094 23.6666 17.5V1.16667C23.6666 0.857247 23.5437 0.560501 23.3249 0.341709C23.1061 0.122917 22.8094 0 22.5 0ZM20.75 5.67933L12.5833 10.346C12.4071 10.4467 12.2076 10.4996 12.0046 10.4996C11.8017 10.4996 11.6022 10.4467 11.426 10.346L3.25931 5.67933C3.12248 5.60538 3.00182 5.50482 2.90443 5.38356C2.80703 5.2623 2.73486 5.12279 2.69216 4.97324C2.64947 4.82368 2.63711 4.66709 2.65581 4.51269C2.67451 4.35829 2.72389 4.20918 2.80106 4.07414C2.87822 3.9391 2.98161 3.82085 3.10514 3.72635C3.22867 3.63185 3.36985 3.563 3.52038 3.52386C3.6709 3.48471 3.82774 3.47606 3.98166 3.49841C4.13557 3.52076 4.28347 3.57366 4.41665 3.654L12 7.9905L19.5833 3.654C19.7163 3.5774 19.8631 3.52773 20.0152 3.50785C20.1674 3.48797 20.322 3.49826 20.4702 3.53812C20.6184 3.57799 20.7573 3.64666 20.879 3.74021C21.0007 3.83375 21.1027 3.95035 21.1793 4.08333C21.2559 4.21632 21.3056 4.36309 21.3255 4.51527C21.3453 4.66744 21.3351 4.82205 21.2952 4.97025C21.2553 5.11845 21.1867 5.25735 21.0931 5.37902C20.9996 5.50068 20.883 5.60273 20.75 5.67933Z" fill="#9A9A9A"/>
</svg>
