<svg width="16" height="21" viewBox="0 0 16 21" fill="none" xmlns="http://www.w3.org/2000/svg">
<path d="M7.994 20.1708C10.3754 19.2025 12.4106 17.5403 13.8351 15.4003C15.2596 13.2604 16.0077 10.7414 15.982 8.17078C16.0058 7.10648 15.8168 6.04814 15.4259 5.05791C15.0351 4.06768 14.4504 3.16551 13.7061 2.40437C12.9618 1.64323 12.0729 1.03846 11.0917 0.625576C10.1104 0.212688 9.05657 0 7.992 0C6.92743 0 5.87359 0.212688 4.89235 0.625576C3.9111 1.03846 3.02224 1.64323 2.27794 2.40437C1.53364 3.16551 0.948913 4.06768 0.558079 5.05791C0.167245 6.04814 -0.0218148 7.10648 0.00200014 8.17078C-0.0233378 10.7419 0.725273 13.2612 2.15054 15.4012C3.57581 17.5412 5.61183 19.2031 7.994 20.1708ZM5.994 8.17078C5.994 7.77522 6.1113 7.38854 6.33106 7.05964C6.55082 6.73075 6.86318 6.4744 7.22863 6.32303C7.59409 6.17165 7.99622 6.13204 8.38418 6.20921C8.77214 6.28638 9.12851 6.47687 9.40821 6.75657C9.68792 7.03628 9.8784 7.39264 9.95557 7.7806C10.0327 8.16857 9.99313 8.5707 9.84176 8.93615C9.69038 9.3016 9.43404 9.61396 9.10514 9.83372C8.77624 10.0535 8.38956 10.1708 7.994 10.1708C7.46357 10.1708 6.95486 9.96007 6.57979 9.585C6.20471 9.20993 5.994 8.70122 5.994 8.17078Z" fill="#9A9A9A"/>
</svg>
