<svg width="454" height="627" viewBox="0 0 454 627" fill="none" xmlns="http://www.w3.org/2000/svg">
<path d="M173.16 606.493C172.585 606.519 172.016 606.368 171.53 606.06C171.043 605.752 170.663 605.303 170.441 604.771C170.219 604.24 170.166 603.654 170.288 603.091C170.411 602.529 170.703 602.018 171.126 601.627L171.318 600.862C171.293 600.801 171.267 600.74 171.242 600.679C170.662 599.31 169.692 598.144 168.451 597.325C167.211 596.507 165.757 596.073 164.271 596.079C162.785 596.084 161.334 596.529 160.1 597.356C158.866 598.184 157.904 599.358 157.335 600.73C155.06 606.208 152.164 611.696 151.451 617.488C151.137 620.048 151.27 622.644 151.843 625.159C146.501 613.505 143.727 600.839 143.709 588.02C143.708 584.803 143.886 581.588 144.244 578.392C144.54 575.771 144.95 573.169 145.475 570.585C148.338 556.567 154.486 543.428 163.413 532.248C167.734 529.89 171.228 526.265 173.425 521.86C174.221 520.277 174.783 518.587 175.095 516.842C174.607 516.906 173.257 509.483 173.624 509.028C172.945 507.997 171.729 507.485 170.988 506.479C167.298 501.477 162.215 502.35 159.562 509.148C153.893 512.009 153.838 516.754 157.316 521.317C159.529 524.22 159.833 528.149 161.775 531.257C161.575 531.513 161.367 531.76 161.168 532.016C157.516 536.711 154.333 541.754 151.665 547.07C152.314 541.114 151.54 535.089 149.406 529.491C147.243 524.274 143.19 519.88 139.62 515.37C135.332 509.952 126.54 512.316 125.784 519.184C125.777 519.25 125.77 519.317 125.763 519.383C126.293 519.682 126.812 520 127.32 520.336C127.958 520.762 128.452 521.371 128.738 522.083C129.024 522.795 129.088 523.577 128.922 524.326C128.756 525.075 128.368 525.756 127.808 526.281C127.248 526.806 126.543 527.149 125.784 527.266L125.707 527.278C125.896 529.189 126.23 531.083 126.706 532.943C122.126 550.653 132.013 557.103 146.13 557.393C146.442 557.553 146.745 557.713 147.057 557.865C144.376 565.461 142.695 573.374 142.055 581.404C141.693 586.141 141.714 590.9 142.119 595.634L142.095 595.467C141.072 590.203 138.264 585.453 134.144 582.019C128.026 576.993 119.382 575.142 112.782 571.103C112.08 570.652 111.265 570.412 110.431 570.41C109.598 570.408 108.781 570.644 108.077 571.091C107.373 571.538 106.812 572.177 106.46 572.932C106.107 573.688 105.978 574.528 106.088 575.355C106.096 575.413 106.105 575.472 106.115 575.531C107.099 575.932 108.057 576.393 108.983 576.913C109.513 577.212 110.032 577.53 110.54 577.866C111.178 578.292 111.672 578.901 111.958 579.613C112.244 580.325 112.308 581.107 112.143 581.856C111.977 582.605 111.588 583.286 111.028 583.811C110.468 584.336 109.763 584.679 109.005 584.796L108.927 584.808C108.871 584.816 108.823 584.824 108.767 584.832C110.449 588.846 112.808 592.541 115.743 595.754C118.606 611.215 130.905 612.681 144.06 608.179H144.068C145.512 614.452 147.603 620.557 150.309 626.397H172.602C172.682 626.149 172.753 625.894 172.825 625.646C170.762 625.776 168.69 625.652 166.657 625.278C168.311 623.249 169.965 621.203 171.619 619.174C171.656 619.136 171.69 619.096 171.723 619.054C172.562 618.015 173.409 616.984 174.248 615.946L174.248 615.944C174.293 612.76 173.927 609.584 173.161 606.493L173.16 606.493Z" fill="#F2F2F2"/>
<path d="M140.131 254C115.013 254 90.4587 246.552 69.5737 232.597C48.6886 218.642 32.4107 198.807 22.7984 175.601C13.1861 152.395 10.671 126.859 15.5714 102.224C20.4717 77.588 32.5673 54.9588 50.3285 37.1975C68.0898 19.4362 90.719 7.34065 115.355 2.44033C139.99 -2.46 165.526 0.0550251 188.732 9.66735C211.938 19.2797 231.773 35.5576 245.728 56.4426C259.683 77.3277 267.131 101.882 267.131 127C267.093 160.671 253.7 192.952 229.892 216.76C206.083 240.569 173.802 253.962 140.131 254ZM140.131 2.00006C115.408 2.00006 91.241 9.33118 70.6848 23.0664C50.1287 36.8015 34.1071 56.3239 24.6461 79.1646C15.1852 102.005 12.7098 127.139 17.5329 151.386C22.3561 175.634 34.2612 197.907 51.7427 215.388C69.2243 232.87 91.4972 244.775 115.745 249.598C139.992 254.421 165.126 251.946 187.967 242.485C210.807 233.024 230.33 217.003 244.065 196.446C257.8 175.89 265.131 151.723 265.131 127C265.094 93.8595 251.912 62.087 228.478 38.6531C205.044 15.2191 173.272 2.03751 140.131 2.00006Z" fill="#F2F2F2"/>
<path d="M154.066 173H127.066C125.739 173 124.468 172.473 123.53 171.536C122.592 170.598 122.066 169.326 122.066 168C122.066 166.674 122.592 165.402 123.53 164.464C124.468 163.527 125.739 163 127.066 163H154.066C155.392 163 156.663 163.527 157.601 164.464C158.539 165.402 159.066 166.674 159.066 168C159.066 169.326 158.539 170.598 157.601 171.536C156.663 172.473 155.392 173 154.066 173Z" fill="#E6E6E6"/>
<path d="M160.268 318.117H120.863C118.927 318.117 117.071 317.348 115.703 315.98C114.334 314.611 113.566 312.755 113.566 310.82C113.566 308.884 114.334 307.028 115.703 305.66C117.071 304.291 118.927 303.522 120.863 303.522H160.268C162.204 303.522 164.06 304.291 165.428 305.66C166.797 307.028 167.566 308.884 167.566 310.82C167.566 312.755 166.797 314.611 165.428 315.98C164.06 317.348 162.204 318.117 160.268 318.117Z" fill="#A4002E"/>
<path d="M272.278 287.53H8.85315C6.50598 287.528 4.25574 286.594 2.59604 284.934C0.936339 283.275 0.00271544 281.024 0 278.677V200.143C0.00271544 197.796 0.936339 195.545 2.59604 193.886C4.25574 192.226 6.50598 191.292 8.85315 191.29H272.278C274.625 191.292 276.875 192.226 278.535 193.886C280.195 195.545 281.128 197.796 281.131 200.143V278.677C281.128 281.024 280.195 283.275 278.535 284.934C276.875 286.594 274.625 287.528 272.278 287.53Z" fill="#E6E6E6"/>
<path d="M246.683 281.559H14.8261C12.4789 281.556 10.2287 280.622 8.569 278.963C6.9093 277.303 5.97568 275.053 5.97296 272.706V206.119C5.97568 203.772 6.9093 201.522 8.569 199.862C10.2287 198.202 12.4789 197.269 14.8261 197.266H266.306C268.654 197.269 270.904 198.202 272.563 199.862C274.223 201.522 275.157 203.772 275.16 206.119V253.082C275.151 260.632 272.148 267.87 266.81 273.209C261.471 278.547 254.233 281.55 246.683 281.559Z" fill="white"/>
<path d="M166.706 220.947H60.8291C60.2236 220.947 59.6428 220.707 59.2146 220.279C58.7864 219.85 58.5459 219.27 58.5459 218.664C58.5459 218.059 58.7864 217.478 59.2146 217.05C59.6428 216.621 60.2236 216.381 60.8291 216.381H166.706C167.311 216.381 167.892 216.621 168.32 217.05C168.749 217.478 168.989 218.059 168.989 218.664C168.989 219.27 168.749 219.85 168.32 220.279C167.892 220.707 167.311 220.947 166.706 220.947Z" fill="#A4002E"/>
<path d="M220.302 230.286H60.8291C60.2236 230.286 59.6428 230.045 59.2146 229.617C58.7864 229.189 58.5459 228.608 58.5459 228.003C58.5459 227.397 58.7864 226.816 59.2146 226.388C59.6428 225.96 60.2236 225.719 60.8291 225.719H220.302C220.908 225.719 221.489 225.96 221.917 226.388C222.345 226.816 222.586 227.397 222.586 228.003C222.586 228.608 222.345 229.189 221.917 229.617C221.489 230.045 220.908 230.286 220.302 230.286Z" fill="#E6E6E6"/>
<path d="M220.302 241.005H60.8291C60.5289 241.006 60.2315 240.947 59.9539 240.833C59.6763 240.718 59.424 240.55 59.2115 240.338C58.999 240.126 58.8304 239.874 58.7153 239.597C58.6003 239.319 58.5411 239.022 58.5411 238.722C58.5411 238.422 58.6003 238.124 58.7153 237.847C58.8304 237.57 58.999 237.318 59.2115 237.106C59.424 236.894 59.6763 236.725 59.9539 236.611C60.2315 236.497 60.5289 236.438 60.8291 236.439H220.302C220.907 236.44 221.487 236.681 221.914 237.109C222.341 237.537 222.581 238.117 222.581 238.722C222.581 239.327 222.341 239.907 221.914 240.335C221.487 240.763 220.907 241.004 220.302 241.005Z" fill="#E6E6E6"/>
<path d="M220.302 251.724H60.8291C60.5289 251.725 60.2315 251.666 59.9539 251.552C59.6763 251.438 59.424 251.269 59.2115 251.057C58.999 250.845 58.8304 250.593 58.7153 250.316C58.6003 250.039 58.5411 249.741 58.5411 249.441C58.5411 249.141 58.6003 248.844 58.7153 248.566C58.8304 248.289 58.999 248.037 59.2115 247.825C59.424 247.613 59.6763 247.445 59.9539 247.33C60.2315 247.216 60.5289 247.157 60.8291 247.158H220.302C220.907 247.159 221.487 247.4 221.914 247.828C222.341 248.256 222.581 248.836 222.581 249.441C222.581 250.046 222.341 250.626 221.914 251.054C221.487 251.482 220.907 251.723 220.302 251.724Z" fill="#E6E6E6"/>
<path d="M220.302 262.444H60.8291C60.5289 262.444 60.2315 262.386 59.9539 262.271C59.6763 262.157 59.424 261.989 59.2115 261.777C58.999 261.565 58.8304 261.313 58.7153 261.035C58.6003 260.758 58.5411 260.461 58.5411 260.161C58.5411 259.86 58.6003 259.563 58.7153 259.286C58.8304 259.008 58.999 258.756 59.2115 258.544C59.424 258.332 59.6763 258.164 59.9539 258.05C60.2315 257.935 60.5289 257.877 60.8291 257.877H220.302C220.907 257.879 221.487 258.12 221.914 258.548C222.341 258.976 222.581 259.556 222.581 260.161C222.581 260.765 222.341 261.345 221.914 261.773C221.487 262.201 220.907 262.443 220.302 262.444Z" fill="#E6E6E6"/>
<path d="M360.42 615.836L349.719 615.835L344.628 574.558L360.423 574.559L360.42 615.836Z" fill="#A0616A"/>
<path d="M360.797 627L327.888 626.999V626.583C327.888 623.186 329.238 619.928 331.64 617.526C334.042 615.124 337.3 613.774 340.697 613.774H340.698L346.709 609.214L357.924 613.775L360.797 613.775L360.797 627Z" fill="#2F2E41"/>
<path d="M447.91 602.133L438.321 606.883L415.434 572.157L429.587 565.146L447.91 602.133Z" fill="#A0616A"/>
<path d="M453.204 611.969L423.716 626.578L423.531 626.205C422.023 623.161 421.786 619.643 422.872 616.424C423.958 613.205 426.278 610.55 429.322 609.042L429.322 609.041L432.684 602.286L444.759 601.394L447.333 600.119L453.204 611.969Z" fill="#2F2E41"/>
<path d="M328.717 393.964C328.717 393.964 316.536 410.946 325.329 440.285C334.122 469.623 329.185 495.853 331.653 501.113C334.121 506.372 339.09 511.367 334.984 515.355C330.879 519.342 328.717 522.585 331.96 523.666C335.202 524.746 346.011 600.406 346.011 600.406L364.385 601.486C364.385 601.486 371.042 566.341 363.93 537.978C363.93 537.978 365.491 517.387 362.236 511.339C358.981 505.291 359.619 510.747 359.841 503.155C359.963 497.665 360.763 492.211 362.224 486.917C363.304 482.593 363.93 439.019 363.93 439.019L381.818 496.844C382.535 498.836 382.804 500.962 382.606 503.07C382.164 506.049 382.16 510.5 382.702 512.057C383.245 513.615 383.849 513.942 383.547 517.021C383.245 520.1 419.245 585 419.245 585L437.131 573L419.508 516.1C417.758 514.161 416.302 511.976 415.185 509.615C413.023 505.291 412.939 505.053 414.062 501.93C415.185 498.806 415.185 492.721 415.185 490.9C415.185 489.079 416.308 406.397 402.236 394.236C388.164 382.075 328.717 393.964 328.717 393.964Z" fill="#2F2E41"/>
<path d="M394.793 262.423L391.131 252L381.131 242L362.686 239.798L350.678 247.693L339.556 258.656L323.131 395C323.131 395 400.714 424.912 410.879 399.809L394.793 262.423Z" fill="#CCCCCC"/>
<path d="M401.082 262.423L390.306 251.647C390.306 251.647 385.159 320.519 387.352 325.363C389.545 330.207 392.127 328.97 389.336 331.588C386.544 334.207 383.545 331.608 386.545 336.407C388.313 339.098 389.18 342.281 389.021 345.497C389.021 345.497 404.545 443.207 413.545 443.207C422.545 443.207 428.179 440.572 427.862 437.889C427.544 435.207 422.236 428.527 423.89 426.867C425.545 425.207 429.623 426.46 425.584 423.333C421.544 420.207 419.545 421.207 420.545 417.207C421.545 413.207 413.899 361.352 413.899 361.352L413.154 274.739L401.082 262.423Z" fill="#3F3D56"/>
<path d="M350.678 247.693L336.722 249.667L320.131 256C320.131 256 327.709 341.482 326.127 344.344C324.544 347.207 321.733 345.419 324.139 348.313C326.544 351.207 328.709 349.923 326.127 352.565C323.544 355.207 319.198 351.86 321.871 356.533C324.544 361.207 311.663 425.549 315.131 429C318.6 432.451 327.537 430.304 327.541 427.755C327.267 425.008 326.229 422.393 324.544 420.207C324.061 419.652 323.794 418.942 323.794 418.207C323.794 417.471 324.061 416.761 324.544 416.207C325.962 414.844 326.935 413.085 327.337 411.161C327.544 409.207 329.072 406.805 329.808 405.006C330.544 403.207 349.087 281.415 349.087 281.415L350.678 247.693Z" fill="#3F3D56"/>
<path d="M291.131 315L297.425 311.714C289.566 304.625 270.068 293.028 270.068 293.028L236.462 270.371C235.97 269.213 235.181 268.205 234.176 267.448C233.17 266.692 231.983 266.213 230.734 266.061C229.485 265.909 228.218 266.089 227.06 266.583C225.903 267.076 224.895 267.866 224.14 268.872C223.385 269.878 222.908 271.066 222.757 272.315C222.607 273.565 222.788 274.832 223.283 275.989C223.777 277.146 224.568 278.152 225.576 278.906C226.583 279.66 227.771 280.136 229.02 280.285L266.682 314.026L291.131 315Z" fill="#A0616A"/>
<path d="M337.131 290L337.199 262.366L321.848 255.024L283.131 296L280.131 294H273.131L256.131 314C256.131 314 265.185 319.366 269.658 317.183C274.131 315 273.711 318.136 273.711 318.136C274.374 318.971 275.299 319.557 276.337 319.802C277.375 320.046 278.464 319.933 279.43 319.482C283.131 318 290.131 322 290.131 322L337.131 290Z" fill="#3F3D56"/>
<path d="M373.925 233.45C386.288 233.45 396.311 223.427 396.311 211.063C396.311 198.7 386.288 188.677 373.925 188.677C361.561 188.677 351.538 198.7 351.538 211.063C351.538 223.427 361.561 233.45 373.925 233.45Z" fill="#A0616A"/>
<path d="M400.949 216.747C398.836 220.883 395.999 224.608 392.574 227.744C391.59 228.862 390.336 229.708 388.931 230.201C388.224 230.431 387.46 230.406 386.77 230.131C386.08 229.856 385.509 229.347 385.155 228.694L384.74 228.127C385.94 227.76 387.072 227.2 388.092 226.469C388.598 226.101 389.009 225.618 389.291 225.059C389.573 224.5 389.718 223.882 389.713 223.255C389.676 222.63 389.399 222.043 388.938 221.617C388.478 221.192 387.871 220.962 387.244 220.974C385.846 221.141 384.596 222.774 383.343 222.144C382.331 221.63 382.476 220.157 382.766 219.044C384.324 213.239 383.672 204.241 381.43 203.927C379.201 203.473 377.077 202.604 375.169 201.364C373.258 200.123 371.125 199.264 368.887 198.838C368.726 198.816 368.562 198.805 368.389 198.791C368.325 197.594 368.116 196.409 367.768 195.262C367.524 196.473 367.153 197.655 366.659 198.787C364.721 199.052 362.763 199.151 360.808 199.083C358.724 198.841 352.735 203.697 352.69 203.029C352.626 201.832 352.418 200.647 352.069 199.5C351.826 200.711 351.455 201.893 350.961 203.026C350.939 203.072 350.929 203.111 350.906 203.157C350.269 201.605 350.087 199.868 350.103 201.165C348.766 192.916 351.417 187.949 358.188 183.057C359.54 181.978 361.144 181.26 362.849 180.971C363.701 180.834 364.574 180.92 365.383 181.219C366.192 181.518 366.91 182.02 367.469 182.677C370.068 181.302 372.988 180.647 375.926 180.78C378.863 180.914 381.712 181.83 384.176 183.434C389.046 186.697 392.888 188.868 392.24 194.702C396.856 195.146 400.755 198.853 402.213 203.247C403.659 207.647 402.908 212.558 400.949 216.747Z" fill="#2F2E41"/>
<path d="M429.524 333.396L413.463 331.095C408.031 340.178 406.101 364.353 406.101 364.353L390.383 401.712C389.342 402.419 388.506 403.388 387.958 404.521C387.411 405.654 387.171 406.911 387.264 408.166C387.357 409.421 387.779 410.629 388.487 411.669C389.195 412.709 390.165 413.545 391.299 414.091C392.432 414.637 393.69 414.875 394.945 414.78C396.199 414.686 397.407 414.263 398.446 413.553C399.486 412.844 400.32 411.873 400.865 410.739C401.409 409.605 401.646 408.347 401.55 407.092L427.357 363.608L429.524 333.396Z" fill="#A0616A"/>
<path d="M392.544 277.704L399.349 268.331L413.149 274.744L424.626 319.017C424.626 319.017 433.008 324.471 431.22 328.319C429.432 332.166 428.481 335.271 430.329 337.475C432.178 339.68 437.561 339.842 433.551 343.437C429.541 347.032 432.974 356.424 432.974 356.424L429.131 365L405.131 364L392.544 277.704Z" fill="#3F3D56"/>
<path d="M160.081 124.271C160.082 128.227 158.91 132.095 156.712 135.386C154.515 138.676 151.391 141.241 147.736 142.756C144.081 144.271 140.059 144.668 136.178 143.897C132.297 143.126 128.732 141.222 125.934 138.425C123.135 135.628 121.229 132.064 120.456 128.183C119.683 124.303 120.079 120.28 121.592 116.625C123.105 112.969 125.668 109.844 128.958 107.645C132.247 105.446 136.114 104.272 140.071 104.271C142.699 104.267 145.302 104.782 147.73 105.786C150.159 106.789 152.366 108.262 154.224 110.12C156.083 111.978 157.557 114.184 158.562 116.612C159.567 119.04 160.083 121.643 160.081 124.271Z" fill="#A4002E"/>
<path d="M140.517 127.17C144.383 127.17 147.517 124.036 147.517 120.17C147.517 116.304 144.383 113.17 140.517 113.17C136.651 113.17 133.517 116.304 133.517 120.17C133.517 124.036 136.651 127.17 140.517 127.17Z" fill="white"/>
<path d="M148.021 129.671H133.021C132.093 129.672 131.203 130.041 130.547 130.697C129.891 131.353 129.522 132.243 129.521 133.171C129.735 136.168 130.203 139.142 130.921 142.061C133.929 143.611 137.282 144.372 140.665 144.272C144.047 144.172 147.349 143.215 150.261 141.491C150.903 138.755 151.324 135.973 151.521 133.171C151.52 132.243 151.151 131.353 150.495 130.697C149.839 130.041 148.949 129.672 148.021 129.671Z" fill="white"/>
</svg>
