<svg width="28" height="28" viewBox="0 0 28 28" fill="none" xmlns="http://www.w3.org/2000/svg">
<path d="M11.8355 23.6766C13.8703 23.6787 15.8709 23.1526 17.6419 22.1499L22.5534 27.0649C23.1518 27.6636 23.9633 28 24.8095 28C25.6557 28 26.4672 27.6636 27.0655 27.0649C27.6639 26.4661 28 25.654 28 24.8072C28 23.9605 27.6639 23.1484 27.0655 22.5496L22.1495 17.6302C23.4204 15.3626 23.91 12.7395 23.5428 10.1657C23.1756 7.59193 21.972 5.21068 20.1177 3.38959C18.2635 1.56849 15.8618 0.408817 13.2834 0.0895962C10.705 -0.229624 8.0933 0.309362 5.85147 1.62334C3.60965 2.93733 1.86239 4.95323 0.879434 7.35984C-0.103521 9.76646 -0.267505 12.4299 0.412797 14.9391C1.0931 17.4482 2.57986 19.6635 4.64354 21.243C6.70722 22.8224 9.23307 23.6781 11.8311 23.6781L11.8355 23.6766ZM5.54722 5.53158C7.00232 4.07614 8.91669 3.17058 10.9642 2.96919C13.0117 2.7678 15.0656 3.28304 16.776 4.42713C18.4864 5.57122 19.7476 7.27337 20.3445 9.24359C20.9414 11.2138 20.8373 13.3302 20.0498 15.2322C19.2622 17.1341 17.8401 18.7041 16.0256 19.6744C14.2111 20.6448 12.1165 20.9555 10.0987 20.5538C8.0809 20.152 6.26472 19.0626 4.95958 17.4711C3.65445 15.8796 2.9411 13.8845 2.94109 11.8258C2.93743 10.6562 3.16593 9.49759 3.6133 8.4171C4.06068 7.33663 4.71804 6.35581 5.54722 5.53158Z" fill="#666666"/>
</svg>
