<svg width="93" height="15" viewBox="0 0 93 15" fill="none" xmlns="http://www.w3.org/2000/svg">
<path d="M13.8841 5.56639C14.3132 5.62901 14.4646 6.17088 14.1301 6.44685L11.0698 8.97137C10.9246 9.09114 10.859 9.28229 10.9 9.46598L11.849 13.7187C11.9491 14.1671 11.4422 14.5018 11.0691 14.2335L7.79192 11.8768C7.61751 11.7513 7.38249 11.7513 7.20808 11.8768L3.93087 14.2335C3.55783 14.5018 3.05088 14.1671 3.15096 13.7187L4.10003 9.46598C4.14102 9.28229 4.07539 9.09114 3.93021 8.97137L0.869941 6.44685C0.535403 6.17088 0.686797 5.62901 1.11593 5.56639L4.74146 5.03742C4.90329 5.01381 5.04333 4.91256 5.11648 4.76629L7.0528 0.894257C7.23707 0.52577 7.76293 0.525771 7.9472 0.894258L9.88352 4.76629C9.95667 4.91256 10.0967 5.01381 10.2585 5.03742L13.8841 5.56639Z" fill="#FFC240"/>
<path d="M33.3841 5.56639C33.8132 5.62901 33.9646 6.17088 33.6301 6.44685L30.5698 8.97137C30.4246 9.09114 30.359 9.28229 30.4 9.46598L31.349 13.7187C31.4491 14.1671 30.9422 14.5018 30.5691 14.2335L27.2919 11.8768C27.1175 11.7513 26.8825 11.7513 26.7081 11.8768L23.4309 14.2335C23.0578 14.5018 22.5509 14.1671 22.651 13.7187L23.6 9.46598C23.641 9.28229 23.5754 9.09114 23.4302 8.97137L20.3699 6.44685C20.0354 6.17088 20.1868 5.62901 20.6159 5.56639L24.2415 5.03742C24.4033 5.01381 24.5433 4.91256 24.6165 4.76629L26.5528 0.894257C26.7371 0.52577 27.2629 0.525771 27.4472 0.894258L29.3835 4.76629C29.4567 4.91256 29.5967 5.01381 29.7585 5.03742L33.3841 5.56639Z" fill="#FFC240"/>
<path d="M52.8841 5.56639C53.3132 5.62901 53.4646 6.17088 53.1301 6.44685L50.0698 8.97137C49.9246 9.09114 49.859 9.28229 49.9 9.46598L50.849 13.7187C50.9491 14.1671 50.4422 14.5018 50.0691 14.2335L46.7919 11.8768C46.6175 11.7513 46.3825 11.7513 46.2081 11.8768L42.9309 14.2335C42.5578 14.5018 42.0509 14.1671 42.151 13.7187L43.1 9.46598C43.141 9.28229 43.0754 9.09114 42.9302 8.97137L39.8699 6.44685C39.5354 6.17088 39.6868 5.62901 40.1159 5.56639L43.7415 5.03742C43.9033 5.01381 44.0433 4.91256 44.1165 4.76629L46.0528 0.894257C46.2371 0.52577 46.7629 0.525771 46.9472 0.894258L48.8835 4.76629C48.9567 4.91256 49.0967 5.01381 49.2585 5.03742L52.8841 5.56639Z" fill="#FFC240"/>
<path d="M72.3841 5.56639C72.8132 5.62901 72.9646 6.17088 72.6301 6.44685L69.5698 8.97137C69.4246 9.09114 69.359 9.28229 69.4 9.46598L70.349 13.7187C70.4491 14.1671 69.9422 14.5018 69.5691 14.2335L66.2919 11.8768C66.1175 11.7513 65.8825 11.7513 65.7081 11.8768L62.4309 14.2335C62.0578 14.5018 61.5509 14.1671 61.651 13.7187L62.6 9.46598C62.641 9.28229 62.5754 9.09114 62.4302 8.97137L59.3699 6.44685C59.0354 6.17088 59.1868 5.62901 59.6159 5.56639L63.2415 5.03742C63.4033 5.01381 63.5433 4.91256 63.6165 4.76629L65.5528 0.894257C65.7371 0.52577 66.2629 0.525771 66.4472 0.894258L68.3835 4.76629C68.4567 4.91256 68.5967 5.01381 68.7585 5.03742L72.3841 5.56639Z" fill="#FFC240"/>
<path d="M91.8841 5.56639C92.3132 5.62901 92.4646 6.17088 92.1301 6.44685L89.0698 8.97137C88.9246 9.09114 88.859 9.28229 88.9 9.46598L89.849 13.7187C89.9491 14.1671 89.4422 14.5018 89.0691 14.2335L85.7919 11.8768C85.6175 11.7513 85.3825 11.7513 85.2081 11.8768L81.9309 14.2335C81.5578 14.5018 81.0509 14.1671 81.151 13.7187L82.1 9.46598C82.141 9.28229 82.0754 9.09114 81.9302 8.97137L78.8699 6.44685C78.5354 6.17088 78.6868 5.62901 79.1159 5.56639L82.7415 5.03742C82.9033 5.01381 83.0433 4.91256 83.1165 4.76629L85.0528 0.894257C85.2371 0.52577 85.7629 0.525771 85.9472 0.894258L87.8835 4.76629C87.9567 4.91256 88.0967 5.01381 88.2585 5.03742L91.8841 5.56639Z" fill="#FFC240"/>
</svg>
