<svg width="34" height="34" viewBox="0 0 34 34" fill="none" xmlns="http://www.w3.org/2000/svg">
<path d="M17 0C13.6377 0 10.3509 0.997032 7.55531 2.86502C4.75968 4.733 2.58074 7.38804 1.29406 10.4944C0.00736577 13.6007 -0.329291 17.0189 0.326658 20.3165C0.982606 23.6142 2.6017 26.6433 4.97919 29.0208C7.35668 31.3983 10.3858 33.0174 13.6835 33.6733C16.9811 34.3293 20.3993 33.9926 23.5056 32.7059C26.612 31.4193 29.267 29.2403 31.135 26.4447C33.003 23.6491 34 20.3623 34 17C34 14.7675 33.5603 12.5569 32.706 10.4944C31.8516 8.43184 30.5994 6.55778 29.0208 4.97918C27.4422 3.40059 25.5682 2.14838 23.5056 1.29405C21.4431 0.439718 19.2325 0 17 0ZM17 8.5C18.0087 8.5 18.9947 8.79911 19.8334 9.3595C20.6721 9.9199 21.3258 10.7164 21.7118 11.6483C22.0978 12.5802 22.1988 13.6057 22.002 14.595C21.8052 15.5843 21.3195 16.493 20.6062 17.2062C19.893 17.9195 18.9843 18.4052 17.995 18.602C17.0057 18.7988 15.9802 18.6978 15.0483 18.3118C14.1164 17.9258 13.3199 17.2721 12.7595 16.4334C12.1991 15.5947 11.9 14.6087 11.9 13.6C11.9 12.2474 12.4373 10.9502 13.3938 9.99375C14.3502 9.03732 15.6474 8.5 17 8.5ZM17 30.6C13.6943 30.6002 10.5028 29.3908 8.02741 27.2C10.5044 25.0123 13.6953 23.8049 17 23.8049C20.3047 23.8049 23.4956 25.0123 25.9726 27.2C23.4972 29.3908 20.3057 30.6002 17 30.6Z" fill="#3E6E85"/>
</svg>
